<svg width="176" height="45" viewBox="0 0 176 45" fill="none" xmlns="http://www.w3.org/2000/svg">
<path d="M53.408 35C53.002 35 52.6443 34.855 52.335 34.565C52.045 34.275 51.9 33.9173 51.9 33.492V13.859C51.9 13.4337 52.045 13.076 52.335 12.786C52.6443 12.496 53.002 12.351 53.408 12.351C53.8333 12.351 54.191 12.496 54.481 12.786C54.771 13.076 54.916 13.4337 54.916 13.859V22.559L64.515 12.96C64.747 12.728 64.9597 12.5733 65.153 12.496C65.3463 12.3993 65.5493 12.351 65.762 12.351C66.2453 12.351 66.5933 12.496 66.806 12.786C67.0187 13.076 67.096 13.424 67.038 13.83C66.98 14.2167 66.7963 14.5743 66.487 14.903L59.092 22.327L66.632 32.593C66.864 32.9217 66.9607 33.2793 66.922 33.666C66.8833 34.0333 66.748 34.3523 66.516 34.623C66.284 34.8743 65.9747 35 65.588 35C65.0467 35 64.631 34.7873 64.341 34.362L57.004 24.415L54.916 26.503V33.492C54.916 33.9173 54.771 34.275 54.481 34.565C54.191 34.855 53.8333 35 53.408 35ZM76.4172 35.116C74.8512 35.116 73.4689 34.7777 72.2702 34.101C71.0716 33.405 70.1242 32.4577 69.4282 31.259C68.7516 30.041 68.4132 28.649 68.4132 27.083C68.4132 25.4977 68.7516 24.1057 69.4282 22.907C70.1242 21.689 71.0716 20.7417 72.2702 20.065C73.4689 19.369 74.8512 19.021 76.4172 19.021C77.9639 19.021 79.3366 19.369 80.5352 20.065C81.7339 20.7417 82.6716 21.689 83.3482 22.907C84.0442 24.1057 84.3922 25.4977 84.3922 27.083C84.3922 28.649 84.0539 30.041 83.3772 31.259C82.7006 32.4577 81.7629 33.405 80.5642 34.101C79.3656 34.7777 77.9832 35.116 76.4172 35.116ZM76.4172 32.506C77.4226 32.506 78.3119 32.274 79.0852 31.81C79.8586 31.346 80.4579 30.708 80.8832 29.896C81.3279 29.084 81.5502 28.1463 81.5502 27.083C81.5502 26.0197 81.3279 25.082 80.8832 24.27C80.4579 23.4387 79.8586 22.791 79.0852 22.327C78.3119 21.863 77.4226 21.631 76.4172 21.631C75.4119 21.631 74.5226 21.863 73.7492 22.327C72.9759 22.791 72.3669 23.4387 71.9222 24.27C71.4776 25.082 71.2552 26.0197 71.2552 27.083C71.2552 28.1463 71.4776 29.084 71.9222 29.896C72.3669 30.708 72.9759 31.346 73.7492 31.81C74.5226 32.274 75.4119 32.506 76.4172 32.506ZM94.5656 35C93.5989 35 92.7289 34.7583 91.9556 34.275C91.1822 33.7723 90.5732 33.0957 90.1286 32.245C89.6839 31.3943 89.4616 30.4373 89.4616 29.374V15.541C89.4616 15.1157 89.5969 14.7677 89.8676 14.497C90.1382 14.2263 90.4862 14.091 90.9116 14.091C91.3369 14.091 91.6849 14.2263 91.9556 14.497C92.2262 14.7677 92.3616 15.1157 92.3616 15.541V29.374C92.3616 30.1473 92.5742 30.795 92.9996 31.317C93.4249 31.839 93.9469 32.1 94.5656 32.1H95.5516C95.8996 32.1 96.1896 32.2353 96.4216 32.506C96.6729 32.7767 96.7986 33.1247 96.7986 33.55C96.7986 33.9753 96.6342 34.3233 96.3056 34.594C95.9962 34.8647 95.5902 35 95.0876 35H94.5656ZM88.1276 22.211C87.7216 22.211 87.3929 22.095 87.1416 21.863C86.8902 21.631 86.7646 21.341 86.7646 20.993C86.7646 20.6063 86.8902 20.297 87.1416 20.065C87.3929 19.833 87.7216 19.717 88.1276 19.717H94.8266C95.2326 19.717 95.5612 19.833 95.8126 20.065C96.0639 20.297 96.1896 20.6063 96.1896 20.993C96.1896 21.341 96.0639 21.631 95.8126 21.863C95.5612 22.095 95.2326 22.211 94.8266 22.211H88.1276ZM100.898 35C100.454 35 100.096 34.855 99.8252 34.565C99.5739 34.275 99.4289 33.9463 99.3902 33.579C99.3709 33.1923 99.4772 32.854 99.7092 32.564L113.89 15.019H101.188C100.705 15.019 100.338 14.903 100.086 14.671C99.8542 14.4197 99.7479 14.1103 99.7672 13.743C99.7479 13.337 99.8832 13.0083 100.173 12.757C100.463 12.4863 100.821 12.351 101.246 12.351H116.21C116.655 12.351 117.013 12.4863 117.283 12.757C117.554 13.0277 117.709 13.3563 117.747 13.743C117.786 14.1103 117.68 14.439 117.428 14.729L103.189 32.332H116.21C116.655 32.332 117.013 32.4673 117.283 32.738C117.554 32.9893 117.689 33.289 117.689 33.637C117.689 34.0623 117.554 34.4007 117.283 34.652C117.013 34.884 116.655 35 116.21 35H100.898ZM126.544 35.116C124.978 35.116 123.596 34.7777 122.397 34.101C121.199 33.405 120.251 32.4577 119.555 31.259C118.879 30.041 118.54 28.649 118.54 27.083C118.54 25.4977 118.879 24.1057 119.555 22.907C120.251 21.689 121.199 20.7417 122.397 20.065C123.596 19.369 124.978 19.021 126.544 19.021C128.091 19.021 129.464 19.369 130.662 20.065C131.861 20.7417 132.799 21.689 133.475 22.907C134.171 24.1057 134.519 25.4977 134.519 27.083C134.519 28.649 134.181 30.041 133.504 31.259C132.828 32.4577 131.89 33.405 130.691 34.101C129.493 34.7777 128.11 35.116 126.544 35.116ZM126.544 32.506C127.55 32.506 128.439 32.274 129.212 31.81C129.986 31.346 130.585 30.708 131.01 29.896C131.455 29.084 131.677 28.1463 131.677 27.083C131.677 26.0197 131.455 25.082 131.01 24.27C130.585 23.4387 129.986 22.791 129.212 22.327C128.439 21.863 127.55 21.631 126.544 21.631C125.539 21.631 124.65 21.863 123.876 22.327C123.103 22.791 122.494 23.4387 122.049 24.27C121.605 25.082 121.382 26.0197 121.382 27.083C121.382 28.1463 121.605 29.084 122.049 29.896C122.494 30.708 123.103 31.346 123.876 31.81C124.65 32.274 125.539 32.506 126.544 32.506ZM152.32 35.029C151.894 35.029 151.537 34.8937 151.247 34.623C150.976 34.333 150.841 33.9753 150.841 33.55V26.416C150.841 25.314 150.638 24.415 150.232 23.719C149.826 23.023 149.275 22.5107 148.579 22.182C147.902 21.834 147.119 21.66 146.23 21.66C145.418 21.66 144.683 21.8243 144.026 22.153C143.368 22.4817 142.846 22.9263 142.46 23.487C142.073 24.0283 141.88 24.6567 141.88 25.372H140.053C140.053 24.154 140.343 23.0713 140.923 22.124C141.522 21.1573 142.334 20.3937 143.359 19.833C144.383 19.2723 145.534 18.992 146.81 18.992C148.144 18.992 149.333 19.282 150.377 19.862C151.44 20.4227 152.271 21.254 152.871 22.356C153.489 23.458 153.799 24.8113 153.799 26.416V33.55C153.799 33.9753 153.654 34.333 153.364 34.623C153.093 34.8937 152.745 35.029 152.32 35.029ZM140.401 35.029C139.975 35.029 139.618 34.8937 139.328 34.623C139.057 34.333 138.922 33.9753 138.922 33.55V20.616C138.922 20.1713 139.057 19.8137 139.328 19.543C139.618 19.2723 139.975 19.137 140.401 19.137C140.845 19.137 141.203 19.2723 141.474 19.543C141.744 19.8137 141.88 20.1713 141.88 20.616V33.55C141.88 33.9753 141.744 34.333 141.474 34.623C141.203 34.8937 140.845 35.029 140.401 35.029ZM165.301 35.116C163.89 35.116 162.623 34.768 161.502 34.072C160.381 33.3567 159.491 32.3997 158.834 31.201C158.196 29.983 157.877 28.6103 157.877 27.083C157.877 25.5557 158.225 24.183 158.921 22.965C159.636 21.747 160.593 20.79 161.792 20.094C163.01 19.3787 164.373 19.021 165.881 19.021C167.389 19.021 168.742 19.3787 169.941 20.094C171.14 20.79 172.087 21.747 172.783 22.965C173.498 24.183 173.856 25.5557 173.856 27.083H172.725C172.725 28.6103 172.396 29.983 171.739 31.201C171.101 32.3997 170.221 33.3567 169.1 34.072C167.979 34.768 166.712 35.116 165.301 35.116ZM165.881 32.506C166.867 32.506 167.747 32.274 168.52 31.81C169.293 31.3267 169.902 30.679 170.347 29.867C170.792 29.0357 171.014 28.1077 171.014 27.083C171.014 26.039 170.792 25.111 170.347 24.299C169.902 23.4677 169.293 22.82 168.52 22.356C167.747 21.8727 166.867 21.631 165.881 21.631C164.914 21.631 164.035 21.8727 163.242 22.356C162.469 22.82 161.85 23.4677 161.386 24.299C160.941 25.111 160.719 26.039 160.719 27.083C160.719 28.1077 160.941 29.0357 161.386 29.867C161.85 30.679 162.469 31.3267 163.242 31.81C164.035 32.274 164.914 32.506 165.881 32.506ZM172.377 35.029C171.952 35.029 171.594 34.8937 171.304 34.623C171.033 34.333 170.898 33.9753 170.898 33.55V29.113L171.449 26.039L173.856 27.083V33.55C173.856 33.9753 173.711 34.333 173.421 34.623C173.15 34.8937 172.802 35.029 172.377 35.029Z" fill="white"/>
<circle cx="21.5" cy="22.5" r="20.5" fill="#FFBB00"/>
<path d="M1.67956 0.543692C-1.36229 3.72146 0.412126 12.8386 1.67956 17L8.74087 13.3115L12 5.36709C9.82729 2.43522 3.58059 -1.44227 1.67956 0.543692Z" fill="#FFBB00"/>
<path d="M1.67956 0.543692C-1.36229 3.72146 0.412126 12.8386 1.67956 17L8.74087 13.3115L12 5.36709C9.82729 2.43522 3.58059 -1.44227 1.67956 0.543692Z" fill="#FFBB00"/>
<path d="M1.67956 0.543692C-1.36229 3.72146 0.412126 12.8386 1.67956 17L8.74087 13.3115L12 5.36709C9.82729 2.43522 3.58059 -1.44227 1.67956 0.543692Z" fill="#FFBB00"/>
<path d="M1.67956 0.543692C-1.36229 3.72146 0.412126 12.8386 1.67956 17L8.74087 13.3115L12 5.36709C9.82729 2.43522 3.58059 -1.44227 1.67956 0.543692Z" fill="#FFBB00"/>
<path d="M1.67956 0.543692C-1.36229 3.72146 0.412126 12.8386 1.67956 17L8.74087 13.3115L12 5.36709C9.82729 2.43522 3.58059 -1.44227 1.67956 0.543692Z" fill="#FFBB00"/>
<path d="M41.3204 0.543692C44.3623 3.72146 42.5879 12.8386 41.3204 17L34.2591 13.3115L31 5.36709C33.1727 2.43522 39.4194 -1.44227 41.3204 0.543692Z" fill="#FFBB00"/>
<path d="M41.3204 0.543692C44.3623 3.72146 42.5879 12.8386 41.3204 17L34.2591 13.3115L31 5.36709C33.1727 2.43522 39.4194 -1.44227 41.3204 0.543692Z" fill="#FFBB00"/>
<path d="M41.3204 0.543692C44.3623 3.72146 42.5879 12.8386 41.3204 17L34.2591 13.3115L31 5.36709C33.1727 2.43522 39.4194 -1.44227 41.3204 0.543692Z" fill="#FFBB00"/>
<path d="M41.3204 0.543692C44.3623 3.72146 42.5879 12.8386 41.3204 17L34.2591 13.3115L31 5.36709C33.1727 2.43522 39.4194 -1.44227 41.3204 0.543692Z" fill="#FFBB00"/>
<path d="M41.3204 0.543692C44.3623 3.72146 42.5879 12.8386 41.3204 17L34.2591 13.3115L31 5.36709C33.1727 2.43522 39.4194 -1.44227 41.3204 0.543692Z" fill="#FFBB00"/>
</svg>
